  0
SECTION
  2
HEADER
  9
$ACADVER
  1
AC2.10
  0
ENDSEC
  0
SECTION
  2
TABLES
  0
TABLE
  2
LAYER
 70
     8
  0
LAYER
  2
0
 62
     7
 70
0
  6
CONTINUOUS
  0
LAYER
  2
1
 62
     1
 70
0
  6
CONTINUOUS
  0
LAYER
  2
2
 62
     2
 70
0
  6
CONTINUOUS
  0
LAYER
  2
3
 62
     3
 70
0
  6
CONTINUOUS
  0
LAYER
  2
4
 62
     4
 70
0
  6
CONTINUOUS
  0
LAYER
  2
5
 62
     5
 70
0
  6
CONTINUOUS
  0
LAYER
  2
6
 62
     6
 70
0
  6
CONTINUOUS
  0
LAYER
  2
7
 62
     7
 70
0
  6
CONTINUOUS
  0
ENDTAB
  0
TABLE
  2
STYLE
 70
     1
  0
STYLE
 70
     0
  2
STANDARD
  3
TXT
 40
0.00
 41
1.00
 42
1.00
 50
0.00
 71
     0
  0
ENDTAB
  0
ENDSEC
  0
SECTION
  2
BLOCKS
  0
BLOCK
  8
0
  2
EPAD
 70
0
 10
0.0
 20
0.0
  0
POLYLINE
  8
0
 66
1
 70
1
 40
0.5
 41
0.5
  0
VERTEX
  8
0
 10
-0.25
 20
0.0
 42
1.0
  0
VERTEX
  8
0
 10
0.25
 20
0.0
 42
1.0
  0
SEQEND
  8
0
  0
ENDBLK
  8
0
  0
BLOCK
  8
0
  2
RPAD
 70
0
 10
0.0
 20
0.0
  0
TRACE
  8
0
 10
-0.5
 20
-0.5
 11
-0.5
 21
0.5
 12
0.5
 22
-0.5
 13
0.5
 23
0.5
  0
ENDBLK
  8
0
  0
ENDSEC
0
SECTION
2
ENTITIES
0
POLYLINE
8
16384
66
1
40
0.016000
41
0.016000
0
VERTEX
8
16384
10
1.200000
20
-0.400000
0
VERTEX
8
16384
10
1.600000
20
-0.400000
0
VERTEX
8
16384
10
1.600000
20
-1.000000
0
VERTEX
8
16384
10
2.100000
20
-1.000000
0
SEQEND
8
16384
0
POLYLINE
8
16384
66
1
40
0.016000
41
0.016000
0
VERTEX
8
16384
10
3.500000
20
0.000000
0
VERTEX
8
16384
10
2.400000
20
0.000000
0
VERTEX
8
16384
10
2.400000
20
-0.600000
0
SEQEND
8
16384
0
POLYLINE
8
16384
66
1
40
0.016000
41
0.016000
0
VERTEX
8
16384
10
2.400000
20
0.000000
0
VERTEX
8
16384
10
2.000000
20
0.000000
0
SEQEND
8
16384
0
POLYLINE
8
16384
66
1
40
0.016000
41
0.016000
0
VERTEX
8
16384
10
1.200000
20
0.000000
0
VERTEX
8
16384
10
1.500000
20
0.000000
0
SEQEND
8
16384
0
POLYLINE
8
16384
66
1
40
0.016000
41
0.016000
0
VERTEX
8
16384
10
0.000000
20
-0.600000
0
VERTEX
8
16384
10
0.000000
20
-0.400000
0
VERTEX
8
16384
10
0.100000
20
-0.400000
0
SEQEND
8
16384
0
POLYLINE
8
16384
66
1
40
0.016000
41
0.016000
0
VERTEX
8
16384
10
0.100000
20
0.000000
0
VERTEX
8
16384
10
-4.000000
20
0.000000
0
SEQEND
8
16384
0
POLYLINE
8
16384
66
1
40
0.016000
41
0.016000
0
VERTEX
8
16384
10
3.500000
20
-2.400000
0
VERTEX
8
16384
10
3.500000
20
-2.700000
0
VERTEX
8
16384
10
3.500000
20
-2.900000
0
SEQEND
8
16384
0
POLYLINE
8
16384
66
1
40
0.016000
41
0.016000
0
VERTEX
8
16384
10
-3.500000
20
-2.700000
0
VERTEX
8
16384
10
3.500000
20
-2.700000
0
SEQEND
8
16384
0
POLYLINE
8
16384
66
1
40
0.016000
41
0.016000
0
VERTEX
8
16384
10
3.500000
20
-1.800000
0
VERTEX
8
16384
10
3.500000
20
-1.700000
0
VERTEX
8
16384
10
2.400000
20
-1.700000
0
VERTEX
8
16384
10
2.400000
20
-1.100000
0
SEQEND
8
16384
0
POLYLINE
8
0
66
1
40
0.008000
41
0.008000
0
VERTEX
8
0
10
-4.050000
20
0.050000
0
VERTEX
8
0
10
-4.150000
20
0.100000
0
VERTEX
8
0
10
-4.100000
20
0.150000
0
VERTEX
8
0
10
-4.050000
20
0.050000
0
SEQEND
8
0
0
POLYLINE
8
0
66
1
40
0.008000
41
0.008000
0
VERTEX
8
0
10
-4.000000
20
0.000000
0
VERTEX
8
0
10
-4.050000
20
0.050000
0
SEQEND
8
0
0
POLYLINE
8
0
66
1
40
0.008000
41
0.008000
0
VERTEX
8
0
10
-4.000000
20
0.090000
0
VERTEX
8
0
10
-3.980000
20
0.090000
0
SEQEND
8
0
0
POLYLINE
8
0
66
1
40
0.008000
41
0.008000
0
VERTEX
8
0
10
-3.960000
20
0.090000
0
VERTEX
8
0
10
-3.940000
20
0.090000
0
SEQEND
8
0
0
POLYLINE
8
0
66
1
40
0.008000
41
0.008000
0
VERTEX
8
0
10
-3.920000
20
0.090000
0
VERTEX
8
0
10
-3.900000
20
0.090000
0
SEQEND
8
0
0
POLYLINE
8
0
66
1
40
0.008000
41
0.008000
0
VERTEX
8
0
10
-3.880000
20
0.090000
0
VERTEX
8
0
10
-3.860000
20
0.090000
0
SEQEND
8
0
0
POLYLINE
8
0
66
1
40
0.008000
41
0.008000
0
VERTEX
8
0
10
-4.000000
20
0.060000
0
VERTEX
8
0
10
-3.820000
20
0.060000
0
SEQEND
8
0
0
POLYLINE
8
0
66
1
40
0.008000
41
0.008000
0
VERTEX
8
0
10
-3.840000
20
0.090000
0
VERTEX
8
0
10
-3.820000
20
0.090000
0
SEQEND
8
0
0
TEXT
8
12582912
10
-4.580000
20
0.110000
40
0.080000
41
1.000000
1
DC 5v
0
TEXT
8
0
10
-4.740000
20
0.010000
40
0.080000
41
1.000000
1
VALUE=5
0
POLYLINE
8
0
66
1
40
0.016000
41
0.016000
0
VERTEX
8
0
10
3.500000
20
-2.900000
0
VERTEX
8
0
10
3.500000
20
-3.000000
0
SEQEND
8
0
0
POLYLINE
8
0
66
1
40
0.016000
41
0.016000
0
VERTEX
8
0
10
3.400000
20
-3.000000
0
VERTEX
8
0
10
3.600000
20
-3.000000
0
SEQEND
8
0
0
POLYLINE
8
0
66
1
40
0.016000
41
0.016000
0
VERTEX
8
0
10
3.450000
20
-3.050000
0
VERTEX
8
0
10
3.550000
20
-3.050000
0
SEQEND
8
0
0
POLYLINE
8
0
66
1
40
0.016000
41
0.016000
0
VERTEX
8
0
10
3.490000
20
-3.100000
0
VERTEX
8
0
10
3.510000
20
-3.100000
0
SEQEND
8
0
0
CIRCLE
8
128
10
3.500000
20
-2.100000
40
0.200000
0
POLYLINE
8
0
66
1
40
0.010000
41
0.010000
0
VERTEX
8
0
10
3.590000
20
-2.150000
0
VERTEX
8
0
10
3.580000
20
-2.172000
0
VERTEX
8
0
10
3.573000
20
-2.182000
0
VERTEX
8
0
10
3.564000
20
-2.190000
0
VERTEX
8
0
10
3.552000
20
-2.197000
0
VERTEX
8
0
10
3.538000
20
-2.201000
0
VERTEX
8
0
10
3.521000
20
-2.202000
0
VERTEX
8
0
10
3.500000
20
-2.200000
0
SEQEND
8
0
0
POLYLINE
8
0
66
1
40
0.010000
41
0.010000
0
VERTEX
8
0
10
3.490000
20
-2.100000
0
VERTEX
8
0
10
3.493000
20
-2.113000
0
VERTEX
8
0
10
3.501000
20
-2.122000
0
VERTEX
8
0
10
3.511000
20
-2.128000
0
VERTEX
8
0
10
3.520000
20
-2.130000
0
SEQEND
8
0
0
POLYLINE
8
0
66
1
40
0.010000
41
0.010000
0
VERTEX
8
0
10
3.590000
20
-2.050000
0
VERTEX
8
0
10
3.588000
20
-2.070000
0
VERTEX
8
0
10
3.582000
20
-2.086000
0
VERTEX
8
0
10
3.573000
20
-2.100000
0
VERTEX
8
0
10
3.562000
20
-2.111000
0
VERTEX
8
0
10
3.551000
20
-2.120000
0
VERTEX
8
0
10
3.540000
20
-2.125000
0
VERTEX
8
0
10
3.520000
20
-2.130000
0
SEQEND
8
0
0
POLYLINE
8
0
66
1
40
0.010000
41
0.010000
0
VERTEX
8
0
10
3.590000
20
-2.050000
0
VERTEX
8
0
10
3.580000
20
-2.028000
0
VERTEX
8
0
10
3.573000
20
-2.018000
0
VERTEX
8
0
10
3.564000
20
-2.010000
0
VERTEX
8
0
10
3.552000
20
-2.003000
0
VERTEX
8
0
10
3.538000
20
-1.999000
0
VERTEX
8
0
10
3.521000
20
-1.998000
0
VERTEX
8
0
10
3.500000
20
-2.000000
0
SEQEND
8
0
0
POLYLINE
8
0
66
1
40
0.010000
41
0.010000
0
VERTEX
8
0
10
3.490000
20
-2.100000
0
VERTEX
8
0
10
3.493000
20
-2.087000
0
VERTEX
8
0
10
3.501000
20
-2.078000
0
VERTEX
8
0
10
3.511000
20
-2.072000
0
VERTEX
8
0
10
3.520000
20
-2.070000
0
SEQEND
8
0
0
POLYLINE
8
0
66
1
40
0.010000
41
0.010000
0
VERTEX
8
0
10
3.500000
20
-1.900000
0
VERTEX
8
0
10
3.500000
20
-2.000000
0
SEQEND
8
0
0
POLYLINE
8
0
66
1
40
0.010000
41
0.010000
0
VERTEX
8
0
10
3.500000
20
-2.200000
0
VERTEX
8
0
10
3.500000
20
-2.300000
0
SEQEND
8
0
0
POLYLINE
8
0
66
1
40
0.010000
41
0.010000
0
VERTEX
8
0
10
3.590000
20
-2.150000
0
VERTEX
8
0
10
3.588000
20
-2.130000
0
VERTEX
8
0
10
3.582000
20
-2.114000
0
VERTEX
8
0
10
3.573000
20
-2.100000
0
VERTEX
8
0
10
3.562000
20
-2.089000
0
VERTEX
8
0
10
3.551000
20
-2.080000
0
VERTEX
8
0
10
3.540000
20
-2.075000
0
VERTEX
8
0
10
3.520000
20
-2.070000
0
SEQEND
8
0
0
POLYLINE
8
0
66
1
40
0.010000
41
0.010000
0
VERTEX
8
0
10
3.650000
20
-1.900000
0
VERTEX
8
0
10
3.690000
20
-1.840000
0
SEQEND
8
0
0
POLYLINE
8
0
66
1
40
0.010000
41
0.010000
0
VERTEX
8
0
10
3.730000
20
-2.000000
0
VERTEX
8
0
10
3.790000
20
-1.960000
0
SEQEND
8
0
0
POLYLINE
8
0
66
1
40
0.010000
41
0.010000
0
VERTEX
8
0
10
3.750000
20
-2.100000
0
VERTEX
8
0
10
3.820000
20
-2.100000
0
SEQEND
8
0
0
POLYLINE
8
0
66
1
40
0.010000
41
0.010000
0
VERTEX
8
0
10
3.730000
20
-2.200000
0
VERTEX
8
0
10
3.790000
20
-2.240000
0
SEQEND
8
0
0
POLYLINE
8
0
66
1
40
0.010000
41
0.010000
0
VERTEX
8
0
10
3.650000
20
-2.300000
0
VERTEX
8
0
10
3.690000
20
-2.360000
0
SEQEND
8
0
0
POLYLINE
8
255
66
1
40
0.016000
41
0.016000
0
VERTEX
8
255
10
3.500000
20
-1.800000
0
VERTEX
8
255
10
3.500000
20
-1.900000
0
SEQEND
8
255
0
POLYLINE
8
255
66
1
40
0.016000
41
0.016000
0
VERTEX
8
255
10
3.500000
20
-2.400000
0
VERTEX
8
255
10
3.500000
20
-2.300000
0
SEQEND
8
255
0
TEXT
8
0
10
3.875000
20
-1.970000
40
0.120000
41
0.666667
1
L1
0
TEXT
8
0
10
3.875000
20
-2.075000
40
0.080000
41
1.000000
1
220V
0
POLYLINE
8
0
66
1
40
0.008000
41
0.008000
0
VERTEX
8
0
10
3.550000
20
0.050000
0
VERTEX
8
0
10
3.600000
20
0.150000
0
VERTEX
8
0
10
3.650000
20
0.100000
0
VERTEX
8
0
10
3.550000
20
0.050000
0
SEQEND
8
0
0
POLYLINE
8
0
66
1
40
0.008000
41
0.008000
0
VERTEX
8
0
10
3.590000
20
0.000000
0
VERTEX
8
0
10
3.606000
20
-0.004000
0
VERTEX
8
0
10
3.622000
20
-0.014000
0
VERTEX
8
0
10
3.629000
20
-0.021000
0
VERTEX
8
0
10
3.635000
20
-0.029000
0
VERTEX
8
0
10
3.639000
20
-0.039000
0
VERTEX
8
0
10
3.640000
20
-0.050000
0
SEQEND
8
0
0
POLYLINE
8
0
66
1
40
0.008000
41
0.008000
0
VERTEX
8
0
10
3.590000
20
-0.100000
0
VERTEX
8
0
10
3.606000
20
-0.095000
0
VERTEX
8
0
10
3.622000
20
-0.082000
0
VERTEX
8
0
10
3.635000
20
-0.066000
0
VERTEX
8
0
10
3.640000
20
-0.050000
0
SEQEND
8
0
0
POLYLINE
8
0
66
1
40
0.008000
41
0.008000
0
VERTEX
8
0
10
3.590000
20
-0.100000
0
VERTEX
8
0
10
3.579000
20
-0.101000
0
VERTEX
8
0
10
3.569000
20
-0.104000
0
VERTEX
8
0
10
3.561000
20
-0.108000
0
VERTEX
8
0
10
3.554000
20
-0.114000
0
VERTEX
8
0
10
3.548000
20
-0.121000
0
VERTEX
8
0
10
3.544000
20
-0.129000
0
VERTEX
8
0
10
3.541000
20
-0.139000
0
VERTEX
8
0
10
3.540000
20
-0.150000
0
SEQEND
8
0
0
POLYLINE
8
0
66
1
40
0.008000
41
0.008000
0
VERTEX
8
0
10
3.590000
20
-0.200000
0
VERTEX
8
0
10
3.579000
20
-0.199000
0
VERTEX
8
0
10
3.569000
20
-0.195000
0
VERTEX
8
0
10
3.561000
20
-0.189000
0
VERTEX
8
0
10
3.554000
20
-0.182000
0
VERTEX
8
0
10
3.544000
20
-0.166000
0
VERTEX
8
0
10
3.540000
20
-0.150000
0
SEQEND
8
0
0
POLYLINE
8
0
66
1
40
0.008000
41
0.008000
0
VERTEX
8
0
10
3.500000
20
0.000000
0
VERTEX
8
0
10
3.550000
20
0.050000
0
SEQEND
8
0
0
TEXT
8
12582912
10
3.690000
20
0.180000
40
0.080000
41
1.000000
50
90.000000
1
AC220
0
POLYLINE
8
0
66
1
40
0.016000
41
0.016000
0
VERTEX
8
0
10
2.400000
20
-0.800000
0
VERTEX
8
0
10
2.600000
20
-0.800000
0
VERTEX
8
0
10
2.500000
20
-0.900000
0
VERTEX
8
0
10
2.400000
20
-0.800000
0
SEQEND
8
0
0
POLYLINE
8
0
66
1
40
0.016000
41
0.016000
0
VERTEX
8
0
10
2.400000
20
-0.900000
0
VERTEX
8
0
10
2.200000
20
-0.900000
0
VERTEX
8
0
10
2.300000
20
-0.800000
0
VERTEX
8
0
10
2.400000
20
-0.900000
0
SEQEND
8
0
0
POLYLINE
8
0
66
1
40
0.016000
41
0.016000
0
VERTEX
8
0
10
2.200000
20
-0.800000
0
VERTEX
8
0
10
2.400000
20
-0.800000
0
SEQEND
8
0
0
POLYLINE
8
0
66
1
40
0.016000
41
0.016000
0
VERTEX
8
0
10
2.400000
20
-0.900000
0
VERTEX
8
0
10
2.600000
20
-0.900000
0
SEQEND
8
0
0
POLYLINE
8
0
66
1
40
0.016000
41
0.016000
0
VERTEX
8
0
10
2.200000
20
-1.000000
0
VERTEX
8
0
10
2.300000
20
-0.900000
0
SEQEND
8
0
0
POLYLINE
8
0
66
1
40
0.016000
41
0.016000
0
VERTEX
8
0
10
2.400000
20
-0.900000
0
VERTEX
8
0
10
2.400000
20
-1.000000
0
SEQEND
8
0
0
POLYLINE
8
255
66
1
40
0.016000
41
0.016000
0
VERTEX
8
255
10
2.400000
20
-0.600000
0
VERTEX
8
255
10
2.400000
20
-0.800000
0
SEQEND
8
255
0
POLYLINE
8
255
66
1
40
0.016000
41
0.016000
0
VERTEX
8
255
10
2.400000
20
-1.100000
0
VERTEX
8
255
10
2.400000
20
-1.000000
0
SEQEND
8
255
0
POLYLINE
8
255
66
1
40
0.016000
41
0.016000
0
VERTEX
8
255
10
2.100000
20
-1.000000
0
VERTEX
8
255
10
2.200000
20
-1.000000
0
SEQEND
8
255
0
TEXT
8
0
10
2.658000
20
-0.927000
40
0.120000
41
0.666667
1
U1
0
TEXT
8
0
10
2.658000
20
-1.032000
40
0.080000
41
1.000000
1
Q6010L5
0
POLYLINE
8
0
66
1
40
0.016000
41
0.016000
0
VERTEX
8
0
10
0.300000
20
-0.450000
0
VERTEX
8
0
10
1.000000
20
-0.450000
0
VERTEX
8
0
10
1.000000
20
0.050000
0
VERTEX
8
0
10
0.300000
20
0.050000
0
VERTEX
8
0
10
0.300000
20
-0.450000
0
SEQEND
8
0
0
POLYLINE
8
0
66
1
40
0.008000
41
0.008000
0
VERTEX
8
0
10
0.400000
20
-0.150000
0
VERTEX
8
0
10
0.500000
20
-0.150000
0
VERTEX
8
0
10
0.450000
20
-0.250000
0
VERTEX
8
0
10
0.400000
20
-0.150000
0
SEQEND
8
0
0
POLYLINE
8
0
66
1
40
0.016000
41
0.016000
0
VERTEX
8
0
10
0.400000
20
-0.250000
0
VERTEX
8
0
10
0.500000
20
-0.250000
0
SEQEND
8
0
0
POLYLINE
8
0
66
1
40
0.008000
41
0.008000
0
VERTEX
8
0
10
0.800000
20
-0.250000
0
VERTEX
8
0
10
0.900000
20
-0.250000
0
VERTEX
8
0
10
0.850000
20
-0.150000
0
VERTEX
8
0
10
0.800000
20
-0.250000
0
SEQEND
8
0
0
POLYLINE
8
0
66
1
40
0.008000
41
0.008000
0
VERTEX
8
0
10
0.750000
20
-0.250000
0
VERTEX
8
0
10
0.700000
20
-0.150000
0
VERTEX
8
0
10
0.800000
20
-0.150000
0
VERTEX
8
0
10
0.750000
20
-0.250000
0
SEQEND
8
0
0
POLYLINE
8
0
66
1
40
0.008000
41
0.008000
0
VERTEX
8
0
10
0.800000
20
-0.150000
0
VERTEX
8
0
10
0.900000
20
-0.150000
0
SEQEND
8
0
0
POLYLINE
8
0
66
1
40
0.008000
41
0.008000
0
VERTEX
8
0
10
0.800000
20
-0.250000
0
VERTEX
8
0
10
0.700000
20
-0.250000
0
SEQEND
8
0
0
POLYLINE
8
0
66
1
40
0.008000
41
0.008000
0
VERTEX
8
0
10
1.000000
20
0.000000
0
VERTEX
8
0
10
0.800000
20
0.000000
0
VERTEX
8
0
10
0.800000
20
-0.150000
0
SEQEND
8
0
0
POLYLINE
8
0
66
1
40
0.008000
41
0.008000
0
VERTEX
8
0
10
0.800000
20
-0.250000
0
VERTEX
8
0
10
0.800000
20
-0.400000
0
VERTEX
8
0
10
1.000000
20
-0.400000
0
SEQEND
8
0
0
POLYLINE
8
0
66
1
40
0.008000
41
0.008000
0
VERTEX
8
0
10
0.450000
20
-0.250000
0
VERTEX
8
0
10
0.450000
20
-0.400000
0
VERTEX
8
0
10
0.300000
20
-0.400000
0
SEQEND
8
0
0
POLYLINE
8
0
66
1
40
0.008000
41
0.008000
0
VERTEX
8
0
10
0.300000
20
0.000000
0
VERTEX
8
0
10
0.450000
20
0.000000
0
VERTEX
8
0
10
0.450000
20
-0.150000
0
SEQEND
8
0
0
POLYLINE
8
0
66
1
40
0.006000
41
0.006000
0
VERTEX
8
0
10
0.550000
20
-0.050000
0
VERTEX
8
0
10
0.650000
20
-0.150000
0
VERTEX
8
0
10
0.590000
20
-0.190000
0
VERTEX
8
0
10
0.650000
20
-0.250000
0
VERTEX
8
0
10
0.630000
20
-0.210000
0
SEQEND
8
0
0
POLYLINE
8
0
66
1
40
0.006000
41
0.006000
0
VERTEX
8
0
10
0.650000
20
-0.250000
0
VERTEX
8
0
10
0.610000
20
-0.230000
0
SEQEND
8
0
0
POLYLINE
8
255
66
1
40
0.016000
41
0.016000
0
VERTEX
8
255
10
0.100000
20
0.000000
0
VERTEX
8
255
10
0.300000
20
0.000000
0
SEQEND
8
255
0
TEXT
8
0
10
0.120000
20
0.010000
40
0.080000
41
1.000000
1
1
0
POLYLINE
8
255
66
1
40
0.016000
41
0.016000
0
VERTEX
8
255
10
0.100000
20
-0.400000
0
VERTEX
8
255
10
0.300000
20
-0.400000
0
SEQEND
8
255
0
TEXT
8
0
10
0.120000
20
-0.390000
40
0.080000
41
1.000000
1
2
0
POLYLINE
8
255
66
1
40
0.016000
41
0.016000
0
VERTEX
8
255
10
1.200000
20
0.000000
0
VERTEX
8
255
10
1.000000
20
0.000000
0
SEQEND
8
255
0
TEXT
8
0
10
1.100000
20
0.010000
40
0.080000
41
1.000000
1
6
0
POLYLINE
8
255
66
1
40
0.016000
41
0.016000
0
VERTEX
8
255
10
1.200000
20
-0.400000
0
VERTEX
8
255
10
1.000000
20
-0.400000
0
SEQEND
8
255
0
TEXT
8
0
10
1.100000
20
-0.390000
40
0.080000
41
1.000000
1
4
0
TEXT
8
0
10
0.292000
20
0.073000
40
0.120000
41
0.666667
1
U2
0
TEXT
8
0
10
0.292000
20
-0.548000
40
0.080000
41
1.000000
1
MOC3023
0
POLYLINE
8
0
66
1
40
0.016000
41
0.016000
0
VERTEX
8
0
10
1.600000
20
-0.040000
0
VERTEX
8
0
10
1.900000
20
-0.040000
0
VERTEX
8
0
10
1.900000
20
0.040000
0
VERTEX
8
0
10
1.600000
20
0.040000
0
VERTEX
8
0
10
1.600000
20
-0.040000
0
SEQEND
8
0
0
POLYLINE
8
255
66
1
40
0.016000
41
0.016000
0
VERTEX
8
255
10
1.500000
20
0.000000
0
VERTEX
8
255
10
1.600000
20
0.000000
0
SEQEND
8
255
0
POLYLINE
8
255
66
1
40
0.016000
41
0.016000
0
VERTEX
8
255
10
2.000000
20
0.000000
0
VERTEX
8
255
10
1.900000
20
0.000000
0
SEQEND
8
255
0
TEXT
8
0
10
1.592000
20
0.063000
40
0.120000
41
0.666667
1
R1
0
TEXT
8
0
10
1.592000
20
-0.138000
40
0.080000
41
1.000000
1
500
0
CIRCLE
8
16384
10
2.400000
20
0.000000
40
0.020000
0
POLYLINE
8
0
66
1
40
0.016000
41
0.016000
0
VERTEX
8
0
10
0.000000
20
-0.600000
0
VERTEX
8
0
10
0.000000
20
-0.700000
0
SEQEND
8
0
0
POLYLINE
8
0
66
1
40
0.016000
41
0.016000
0
VERTEX
8
0
10
-0.100000
20
-0.700000
0
VERTEX
8
0
10
0.100000
20
-0.700000
0
SEQEND
8
0
0
POLYLINE
8
0
66
1
40
0.016000
41
0.016000
0
VERTEX
8
0
10
-0.050000
20
-0.750000
0
VERTEX
8
0
10
0.050000
20
-0.750000
0
SEQEND
8
0
0
POLYLINE
8
0
66
1
40
0.016000
41
0.016000
0
VERTEX
8
0
10
-0.010000
20
-0.800000
0
VERTEX
8
0
10
0.010000
20
-0.800000
0
SEQEND
8
0
0
POLYLINE
8
0
66
1
40
0.016000
41
0.016000
0
VERTEX
8
0
10
-3.700000
20
-2.500000
0
VERTEX
8
0
10
-3.800000
20
-2.600000
0
VERTEX
8
0
10
-3.800000
20
-2.500000
0
VERTEX
8
0
10
-3.700000
20
-2.500000
0
SEQEND
8
0
0
POLYLINE
8
0
66
1
40
0.016000
41
0.016000
0
VERTEX
8
0
10
-4.100000
20
-2.900000
0
VERTEX
8
0
10
-4.000000
20
-2.800000
0
SEQEND
8
0
0
POLYLINE
8
0
66
1
40
0.016000
41
0.016000
0
VERTEX
8
0
10
-3.700000
20
-2.900000
0
VERTEX
8
0
10
-3.800000
20
-2.800000
0
SEQEND
8
0
0
POLYLINE
8
0
66
1
40
0.016000
41
0.016000
0
VERTEX
8
0
10
-3.950000
20
-2.550000
0
VERTEX
8
0
10
-4.050000
20
-2.450000
0
SEQEND
8
0
0
POLYLINE
8
0
66
1
40
0.016000
41
0.016000
0
VERTEX
8
0
10
-3.850000
20
-2.550000
0
VERTEX
8
0
10
-3.750000
20
-2.450000
0
SEQEND
8
0
0
POLYLINE
8
0
66
1
40
0.016000
41
0.016000
0
VERTEX
8
0
10
-3.900000
20
-3.000000
0
VERTEX
8
0
10
-4.000000
20
-2.900000
0
SEQEND
8
0
0
POLYLINE
8
0
66
1
40
0.016000
41
0.016000
0
VERTEX
8
0
10
-4.050000
20
-2.850000
0
VERTEX
8
0
10
-4.200000
20
-2.700000
0
VERTEX
8
0
10
-4.050000
20
-2.550000
0
SEQEND
8
0
0
POLYLINE
8
0
66
1
40
0.016000
41
0.016000
0
VERTEX
8
0
10
-4.000000
20
-2.500000
0
VERTEX
8
0
10
-3.900000
20
-2.400000
0
SEQEND
8
0
0
POLYLINE
8
0
66
1
40
0.016000
41
0.016000
0
VERTEX
8
0
10
-3.900000
20
-3.000000
0
VERTEX
8
0
10
-3.800000
20
-2.900000
0
SEQEND
8
0
0
POLYLINE
8
0
66
1
40
0.016000
41
0.016000
0
VERTEX
8
0
10
-3.750000
20
-2.850000
0
VERTEX
8
0
10
-3.600000
20
-2.700000
0
VERTEX
8
0
10
-3.750000
20
-2.550000
0
SEQEND
8
0
0
POLYLINE
8
0
66
1
40
0.016000
41
0.016000
0
VERTEX
8
0
10
-3.800000
20
-2.500000
0
VERTEX
8
0
10
-3.900000
20
-2.400000
0
SEQEND
8
0
0
POLYLINE
8
0
66
1
40
0.016000
41
0.016000
0
VERTEX
8
0
10
-4.050000
20
-2.950000
0
VERTEX
8
0
10
-4.050000
20
-2.850000
0
VERTEX
8
0
10
-3.950000
20
-2.850000
0
VERTEX
8
0
10
-4.050000
20
-2.950000
0
SEQEND
8
0
0
POLYLINE
8
0
66
1
40
0.016000
41
0.016000
0
VERTEX
8
0
10
-4.000000
20
-2.600000
0
VERTEX
8
0
10
-4.100000
20
-2.500000
0
VERTEX
8
0
10
-4.000000
20
-2.500000
0
VERTEX
8
0
10
-4.000000
20
-2.600000
0
SEQEND
8
0
0
POLYLINE
8
0
66
1
40
0.016000
41
0.016000
0
VERTEX
8
0
10
-3.750000
20
-2.950000
0
VERTEX
8
0
10
-3.850000
20
-2.850000
0
VERTEX
8
0
10
-3.750000
20
-2.850000
0
VERTEX
8
0
10
-3.750000
20
-2.950000
0
SEQEND
8
0
0
POLYLINE
8
255
66
1
40
0.016000
41
0.016000
0
VERTEX
8
255
10
-3.900000
20
-3.100000
0
VERTEX
8
255
10
-3.900000
20
-3.000000
0
SEQEND
8
255
0
POLYLINE
8
255
66
1
40
0.016000
41
0.016000
0
VERTEX
8
255
10
-3.900000
20
-2.300000
0
VERTEX
8
255
10
-3.900000
20
-2.400000
0
SEQEND
8
255
0
POLYLINE
8
255
66
1
40
0.016000
41
0.016000
0
VERTEX
8
255
10
-3.500000
20
-2.700000
0
VERTEX
8
255
10
-3.600000
20
-2.700000
0
SEQEND
8
255
0
POLYLINE
8
255
66
1
40
0.016000
41
0.016000
0
VERTEX
8
255
10
-4.300000
20
-2.700000
0
VERTEX
8
255
10
-4.200000
20
-2.700000
0
SEQEND
8
255
0
TEXT
8
0
10
-3.591000
20
-2.277000
40
0.120000
41
0.666667
1
BR1
0
TEXT
8
0
10
-3.591000
20
-3.198000
40
0.080000
41
1.000000
1
RMB4S
0
CIRCLE
8
16384
10
3.500000
20
-2.700000
40
0.020000
0
ENDSEC
0
EOF

